# xmcd
#
# Track frame offsets:
# 150
# 14310
# 28706
# 47707
# 68853
# 90721
# 104784
# 117229
# 134824
# 151270
# 171423
#
# Disc length: 2535 seconds
#
#
# Revision: 0
# Processed by: cddbd v1.5.1PL0 Copyright (c) Steve Scherf et al.
# Submitted via: FreeRIP 2.60 
#
DISCID=9b09e50b
DTITLE=SF-Blues - Joutomailla
DYEAR=2005
DGENRE=Blues
TTITLE0=Työlaulu
TTITLE1=John Lee and B.B.
TTITLE2=Vanha vaiva
TTITLE3=Suistoon
TTITLE4=Soitan sen pois
TTITLE5=Miehen työ
TTITLE6=Maanantai Boogie
TTITLE7=Alle jään
TTITLE8=Karibia
TTITLE9=Saarnaaja
TTITLE10=Voodoota ja tupakkaa
EXTD=
EXTT0=
EXTT1=
EXTT2=
EXTT3=
EXTT4=
EXTT5=
EXTT6=
EXTT7=
EXTT8=
EXTT9=
EXTT10=
PLAYORDER=
